<?xml version="1.0" encoding="UTF-8"?>
<svg width="225px" height="66px" viewBox="0 0 225 66" version="1.1" xmlns="http://www.w3.org/2000/svg" xmlns:xlink="http://www.w3.org/1999/xlink">
    <!-- Generator: Sketch 40.1 (33804) - http://www.bohemiancoding.com/sketch -->
    <title>santos-produto-oficial-licenciado</title>
    <desc>Created with Sketch.</desc>
    <defs>
        <polygon id="path-1" points="0 66.6446421 224.224245 66.6446421 224.224245 0.998957895 0 0.998957895"></polygon>
    </defs>
    <g id="Page-1" stroke="none" stroke-width="1" fill="none" fill-rule="evenodd">
        <g id="Artboard-4-Copy" transform="translate(-15.000000, -18.000000)">
            <g id="santos-produto-oficial-licenciado" transform="translate(15.000000, 17.000000)">
                <path d="M91.5599717,9.41430526 L95.0786873,9.41430526 C96.5668398,9.41430526 97.6203683,8.74735789 97.6203683,6.89935789 C97.6203683,5.3362 96.5425009,4.4122 95.0786873,4.4122 L91.5599717,4.4122 L91.5599717,9.41430526 L91.5599717,9.41430526 Z M91.5599717,12.5440947 L91.5599717,18.6994632 L88.0134401,18.6994632 L88.0134401,1.25462105 L95.4611564,1.25462105 C99.1363367,1.25462105 101.239917,3.51251579 101.239917,6.89935789 C101.239917,10.3626211 99.1363367,12.5440947 95.4611564,12.5440947 L91.5599717,12.5440947 L91.5599717,12.5440947 Z" id="Fill-1" fill="#000000"></path>
                <path d="M106.951571,9.33649474 L110.418132,9.33649474 C111.906284,9.33649474 113.011968,8.69386316 113.011968,6.87365263 C113.011968,5.10554737 111.958439,4.38649474 110.498103,4.38649474 L106.951571,4.38649474 L106.951571,9.33649474 Z M109.493252,12.4662842 L106.951571,12.4662842 L106.951571,18.7015474 L103.432855,18.7015474 L103.432855,1.25670526 L110.880572,1.25670526 C114.527936,1.25670526 116.631516,3.46249474 116.631516,6.87365263 C116.631516,9.23575789 115.52931,11.2122842 113.164955,11.9035474 L117.246944,18.7015474 L113.137139,18.7015474 L109.493252,12.4662842 Z" id="Fill-3" fill="#000000"></path>
                <path d="M122.394282,9.85025263 C122.394282,13.3135158 123.013187,16.0056211 126.451932,16.0056211 C129.890677,16.0056211 130.509581,13.3135158 130.509581,9.85025263 C130.509581,6.38698947 129.890677,3.94846316 126.451932,3.94846316 C123.013187,3.94846316 122.394282,6.38698947 122.394282,9.85025263 M118.69824,9.85025263 C118.69824,4.92456842 120.315041,0.999305263 126.451932,0.999305263 C132.588822,0.999305263 134.205623,4.92456842 134.205623,9.85025263 C134.205623,14.8280421 132.588822,18.9582526 126.451932,18.9582526 C120.315041,18.9582526 118.69824,14.8280421 118.69824,9.85025263" id="Fill-5" fill="#000000"></path>
                <path d="M139.918668,4.38545263 L139.918668,15.5707158 L142.894973,15.5707158 C146.212024,15.5707158 146.928284,13.3128211 146.928284,9.84955789 C146.928284,6.38629474 146.212024,4.38545263 142.894973,4.38545263 L139.918668,4.38545263 Z M142.894973,1.25566316 C148.906692,1.25566316 150.624326,4.92387368 150.624326,9.84955789 C150.624326,14.8273474 148.906692,18.7005053 142.894973,18.7005053 L136.399953,18.7005053 L136.399953,1.25566316 L142.894973,1.25566316 Z" id="Fill-7" fill="#000000"></path>
                <path d="M163.011457,12.5437474 L163.011457,1.25427368 L166.530173,1.25427368 L166.530173,12.5437474 C166.530173,17.0838526 163.807688,18.9561684 159.673545,18.9561684 C155.515063,18.9561684 152.816917,17.0838526 152.816917,12.5437474 L152.816917,1.25427368 L156.335633,1.25427368 L156.335633,12.5437474 C156.335633,14.6731158 157.208358,16.0070105 159.701361,16.0070105 C162.396029,16.0070105 163.011457,14.4160632 163.011457,12.5437474" id="Fill-9" fill="#000000"></path>
                <polygon id="Fill-11" fill="#000000" points="176.834238 4.38545263 176.834238 18.7005053 173.291183 18.7005053 173.291183 4.38545263 168.722416 4.38545263 168.722416 1.25566316 181.403005 1.25566316 181.403005 4.38545263"></polygon>
                <path d="M186.786431,9.85025263 C186.786431,13.3135158 187.405336,16.0056211 190.844081,16.0056211 C194.282825,16.0056211 194.90173,13.3135158 194.90173,9.85025263 C194.90173,6.38698947 194.282825,3.94846316 190.844081,3.94846316 C187.405336,3.94846316 186.786431,6.38698947 186.786431,9.85025263 M183.090389,9.85025263 C183.090389,4.92456842 184.70719,0.999305263 190.844081,0.999305263 C196.980971,0.999305263 198.597772,4.92456842 198.597772,9.85025263 C198.597772,14.8280421 196.980971,18.9582526 190.844081,18.9582526 C184.70719,18.9582526 183.090389,14.8280421 183.090389,9.85025263" id="Fill-13" fill="#000000"></path>
                <path d="M91.4817394,32.0630737 C91.4817394,35.5263368 92.1006439,38.2184421 95.5393887,38.2184421 C98.9781336,38.2184421 99.5970381,35.5263368 99.5970381,32.0630737 C99.5970381,28.5998105 98.9781336,26.1612842 95.5393887,26.1612842 C92.1006439,26.1612842 91.4817394,28.5998105 91.4817394,32.0630737 M87.7856971,32.0630737 C87.7856971,27.1373895 89.4024983,23.2121263 95.5393887,23.2121263 C101.676279,23.2121263 103.29308,27.1373895 103.29308,32.0630737 C103.29308,37.0408632 101.676279,41.1710737 95.5393887,41.1710737 C89.4024983,41.1710737 87.7856971,37.0408632 87.7856971,32.0630737" id="Fill-15" fill="#000000"></path>
                <polygon id="Fill-17" fill="#000000" points="105.488105 40.9133263 105.488105 23.4684842 117.014333 23.4684842 117.014333 26.5982737 109.006821 26.5982737 109.006821 30.8570105 115.859972 30.8570105 115.859972 33.9868 109.006821 33.9868 109.006821 40.9133263"></polygon>
                <mask id="mask-2" fill="white">
                    <use xlink:href="#path-1"></use>
                </mask>
                <g id="Clip-20"></g>
                <polygon id="Fill-19" fill="#000000" mask="url(#mask-2)" points="119.212139 40.9150632 122.730855 40.9150632 122.730855 23.4702211 119.212139 23.4702211"></polygon>
                <path d="M132.940694,38.0402421 C134.303674,38.0402421 135.433697,37.9117158 138.152704,37.2690842 L138.952412,40.2217158 C136.563719,40.9129789 134.741775,41.1700316 132.659057,41.1700316 C126.522167,41.1700316 124.901889,37.0641368 124.901889,32.0620316 C124.901889,27.1363474 126.522167,23.2110842 132.659057,23.2110842 C134.741775,23.2110842 136.563719,23.4681368 138.952412,24.1594 L138.152704,27.1120316 C135.433697,26.4694 134.303674,26.3408737 132.940694,26.3408737 C129.703614,26.3408737 128.601408,28.5987684 128.601408,32.0620316 C128.601408,35.7823474 129.703614,38.0402421 132.940694,38.0402421" id="Fill-21" fill="#000000" mask="url(#mask-2)"></path>
                <polygon id="Fill-22" fill="#000000" mask="url(#mask-2)" points="140.811212 40.9150632 144.329928 40.9150632 144.329928 23.4702211 140.811212 23.4702211"></polygon>
                <path d="M153.697291,27.7529263 L151.614573,34.0125053 L155.700039,34.0125053 L153.72163,27.7529263 L153.697291,27.7529263 Z M145.992278,40.9147158 L151.614573,23.3378737 L155.932997,23.3378737 L161.503138,40.9147158 L157.598476,40.9147158 L156.416299,36.9616632 L150.894836,36.9616632 L149.712659,40.9147158 L145.992278,40.9147158 Z" id="Fill-23" fill="#000000" mask="url(#mask-2)"></path>
                <polygon id="Fill-24" fill="#000000" mask="url(#mask-2)" points="174.837749 37.7838842 174.837749 40.9136737 163.179396 40.9136737 163.179396 23.4688316 166.698111 23.4688316 166.698111 37.7838842"></polygon>
                <polygon id="Fill-25" fill="#000000" mask="url(#mask-2)" points="99.698914 59.9967053 99.698914 63.1264947 88.0405606 63.1264947 88.0405606 45.6816526 91.5592763 45.6816526 91.5592763 59.9967053"></polygon>
                <polygon id="Fill-26" fill="#000000" mask="url(#mask-2)" points="101.89672 63.1258 105.415436 63.1258 105.415436 45.6809579 101.89672 45.6809579"></polygon>
                <path d="M115.627013,60.2527158 C116.989994,60.2527158 118.120016,60.1241895 120.839024,59.4815579 L121.638732,62.4341895 C119.250039,63.1254526 117.428095,63.3825053 115.345377,63.3825053 C109.208486,63.3825053 107.588208,59.2766105 107.588208,54.2745053 C107.588208,49.3488211 109.208486,45.4235579 115.345377,45.4235579 C117.428095,45.4235579 119.250039,45.6806105 121.638732,46.3718737 L120.839024,49.3245053 C118.120016,48.6818737 116.989994,48.5533474 115.627013,48.5533474 C112.389934,48.5533474 111.287728,50.8112421 111.287728,54.2745053 C111.287728,57.9948211 112.389934,60.2527158 115.627013,60.2527158" id="Fill-27" fill="#000000" mask="url(#mask-2)"></path>
                <polygon id="Fill-28" fill="#000000" mask="url(#mask-2)" points="135.409358 59.9967053 135.409358 63.1264947 123.493707 63.1264947 123.493707 45.6816526 135.280709 45.6816526 135.280709 48.8114421 127.012423 48.8114421 127.012423 52.5560737 134.126348 52.5560737 134.126348 55.6858632 127.012423 55.6858632 127.012423 59.9967053"></polygon>
                <polygon id="Fill-29" fill="#000000" mask="url(#mask-2)" points="148.132366 63.1258 141.327893 52.5553789 141.275738 52.5553789 141.275738 63.1258 137.861332 63.1258 137.861332 45.6809579 141.380048 45.6809579 148.361848 56.6334842 148.414002 56.6334842 148.414002 45.6809579 151.828408 45.6809579 151.828408 63.1258"></polygon>
                <path d="M162.0605,60.2527158 C163.42348,60.2527158 164.553503,60.1241895 167.27251,59.4815579 L168.072218,62.4341895 C165.683525,63.1254526 163.861581,63.3825053 161.778863,63.3825053 C155.641973,63.3825053 154.021695,59.2766105 154.021695,54.2745053 C154.021695,49.3488211 155.641973,45.4235579 161.778863,45.4235579 C163.861581,45.4235579 165.683525,45.6806105 168.072218,46.3718737 L167.27251,49.3245053 C164.553503,48.6818737 163.42348,48.5533474 162.0605,48.5533474 C158.82342,48.5533474 157.721214,50.8112421 157.721214,54.2745053 C157.721214,57.9948211 158.82342,60.2527158 162.0605,60.2527158" id="Fill-30" fill="#000000" mask="url(#mask-2)"></path>
                <polygon id="Fill-31" fill="#000000" mask="url(#mask-2)" points="169.927541 63.1258 173.446257 63.1258 173.446257 45.6809579 169.927541 45.6809579"></polygon>
                <path d="M182.813968,49.9657474 L180.73125,56.2253263 L184.816715,56.2253263 L182.838307,49.9657474 L182.813968,49.9657474 Z M175.108954,63.1275368 L180.73125,45.5506947 L185.049674,45.5506947 L190.619815,63.1275368 L186.715153,63.1275368 L185.532976,59.1744842 L180.011513,59.1744842 L178.832813,63.1275368 L175.108954,63.1275368 Z" id="Fill-32" fill="#000000" mask="url(#mask-2)"></path>
                <path d="M195.818613,48.8107474 L195.818613,59.9960105 L198.794918,59.9960105 C202.111968,59.9960105 202.828228,57.7381158 202.828228,54.2748526 C202.828228,50.8115895 202.111968,48.8107474 198.794918,48.8107474 L195.818613,48.8107474 Z M198.794918,45.6809579 C204.806636,45.6809579 206.52427,49.3491684 206.52427,54.2748526 C206.52427,59.2526421 204.806636,63.1258 198.794918,63.1258 L192.299897,63.1258 L192.299897,45.6809579 L198.794918,45.6809579 Z" id="Fill-33" fill="#000000" mask="url(#mask-2)"></path>
                <path d="M212.412556,54.2755474 C212.412556,57.7388105 213.03146,60.4309158 216.470205,60.4309158 C219.90895,60.4309158 220.527855,57.7388105 220.527855,54.2755474 C220.527855,50.8122842 219.90895,48.3737579 216.470205,48.3737579 C213.03146,48.3737579 212.412556,50.8122842 212.412556,54.2755474 M208.716514,54.2755474 C208.716514,49.3498632 210.333315,45.4246 216.470205,45.4246 C222.610573,45.4246 224.223897,49.3498632 224.223897,54.2755474 C224.223897,59.2533368 222.610573,63.3835474 216.470205,63.3835474 C210.333315,63.3835474 208.716514,59.2533368 208.716514,54.2755474" id="Fill-34" fill="#000000" mask="url(#mask-2)"></path>
                <path d="M76.4336667,1.0858 L76.0546746,1.0858 C75.1610877,1.0858 74.4274425,1.81874737 74.4274425,2.71148421 L74.4274425,65.0189579 C74.4274425,65.9151684 75.1610877,66.6446421 76.0546746,66.6446421 L76.4336667,66.6446421 C77.3272536,66.6446421 78.0608989,65.9151684 78.0608989,65.0189579 L78.0608989,2.71148421 C78.0608989,1.81874737 77.3272536,1.0858 76.4336667,1.0858" id="Fill-35" fill="#000000" mask="url(#mask-2)"></path>
                <path d="M64.3236521,47.8554842 C63.548283,50.1898 62.4113067,52.1767474 60.9266312,53.7954842 L60.9266312,30.0910632 C61.2291295,30.5912737 61.5629207,31.1227474 61.9106198,31.6368526 C65.3389337,36.8230632 66.1455958,42.2176947 64.3236521,47.8554842 L64.3236521,47.8554842 Z M54.7654018,57.7971684 C52.9469351,58.4641158 50.89551,58.9052737 48.6041724,59.1171684 L48.6041724,21.3130632 L54.7793098,17.3426421 L54.7654018,57.7971684 Z M41.3685525,23.6925368 C40.4575807,24.1788526 39.929078,23.8766421 39.7621823,22.7546421 L39.7621823,13.7960105 C39.7899983,13.2645368 40.0333877,12.7504316 40.5201666,12.2363263 L48.5450635,6.93201053 C49.0909512,6.67148421 49.4560354,6.7618 49.622931,7.17169474 L49.622931,9.9298 L46.4971154,12.0070632 L46.4971154,11.5242211 C46.4658225,11.1421158 46.222433,11.1282211 45.7669471,11.4929579 L43.6772751,13.0387474 C43.5242874,13.1915895 43.4304087,13.4034842 43.4025927,13.6605368 L43.4790865,18.2353789 C43.4929945,18.6001158 43.5242874,18.8293789 43.6007813,18.9509579 C43.691183,19.1003263 43.8580786,19.1176947 44.0840831,18.9961158 L46.0590144,17.6761158 L46.0590144,15.0534842 L49.622931,12.8859053 L49.622931,17.0265368 C49.4560354,17.9505368 49.0457503,18.6939053 48.4094609,19.2392737 L41.3685525,23.6925368 Z M42.460328,60.0272737 C40.2628692,60.6178 38.211444,61.4966421 36.3025755,62.6499053 L36.3025755,29.2712737 L42.460328,25.3008526 L42.460328,60.0272737 Z M34.6197115,24.9986421 L37.6064475,23.1193789 L37.6064475,25.9816947 L34.6197115,27.9373789 L34.6197115,24.9986421 Z M33.7991415,19.4199053 L31.5842977,20.8580105 L30.9306233,20.5419053 L28.4410972,22.1919053 L28.4410972,24.5713789 L30.4473214,23.4215895 L30.4473214,22.5705368 L32.1614784,21.3894842 L32.1614784,26.0720105 L30.2943338,27.3155895 L30.2943338,25.8010632 L28.4862981,26.9682211 L28.4862981,29.7888526 L30.3256267,28.6043263 L30.3256267,30.7719053 L23.4064131,35.1383263 L23.3751202,33.0159053 L24.7867788,32.0606421 L24.7867788,24.5887474 L23.3299193,25.4675895 L23.3299193,23.2096947 L33.7991415,16.4186421 L33.7991415,19.4199053 Z M30.1413462,62.6499053 C28.2324777,61.5105368 26.1810525,60.6316947 23.9975017,60.0411684 L23.9975017,37.2294842 L30.1587311,33.2590632 L30.1413462,62.6499053 Z M21.2367703,36.5173789 L18.2465573,38.4904316 L18.2465573,35.5343263 L21.2367703,33.6550632 L21.2367703,36.5173789 Z M17.8397493,59.1171684 C15.5484117,58.9052737 13.4969866,58.4814842 11.6785199,57.8145368 L11.6785199,45.1876947 L17.8397493,41.2172737 L17.8397493,59.1171684 Z M6.47346326,44.0518 L6.47346326,41.4152737 L9.95045501,39.2615895 L9.95045501,40.6719053 C9.88786916,41.2172737 10.0547648,41.3840105 10.4650498,41.1547474 L12.9510989,39.4873789 L12.9510989,36.9585368 C12.8328812,36.7014842 12.467797,36.6841158 11.8767084,36.9133789 L8.78218578,38.8829579 C8.05201751,39.3970632 7.50612981,39.6402211 7.12713771,39.5950632 C6.76205357,39.5638 6.54995707,39.2476947 6.49084821,38.6571684 L6.47346326,34.7596947 C6.38306147,34.2143263 6.73423764,33.7002211 7.50612981,33.1965368 L14.9260302,28.6043263 C15.3954241,28.4827474 15.7292153,28.5001158 15.9586968,28.6216947 C16.1255924,28.7259053 16.2438101,28.9239053 16.3342119,29.2261158 L16.3342119,31.3798 L12.9997768,33.4431684 L12.9997768,32.6060105 C12.923283,32.2760105 12.6798935,32.2308526 12.3009014,32.4427474 L10.6910543,33.4709579 C10.388556,33.6689579 10.2077524,33.8356947 10.0999657,33.9885368 C9.99565591,34.1379053 9.96436298,34.3046421 9.99565591,34.4713789 L9.99565591,35.6072737 C10.0547648,35.9581158 10.2355683,36.0935895 10.5554516,35.9720105 L13.8481628,33.9572737 C14.9399382,33.4570632 15.7605082,33.6099053 16.289011,34.3810632 L16.3342119,38.0041158 C16.3515968,39.1122211 16.0490986,39.8521158 15.3954241,40.2029579 L7.88512191,45.0383263 C6.92894918,45.4933789 6.45955529,45.1564316 6.47346326,44.0518 L6.47346326,44.0518 Z M5.52076751,53.8128526 C4.6410886,52.8575895 3.89701236,51.7981158 3.27463084,50.6135895 L5.52076751,49.1754842 L5.52076751,53.8128526 Z M4.51939389,31.6368526 C10.5415436,22.5253789 10.9796446,15.7516947 5.85455872,11.3401158 L13.771669,2.79137895 C13.8794557,2.85390526 13.9837655,2.91295789 14.0915522,2.95811579 C19.3870106,5.71622105 25.7568595,7.09527368 33.2219609,7.11264211 C38.3192308,7.09527368 42.9158139,6.45958947 46.9838942,5.17085263 L3.5458362,33.2451684 C3.83442651,32.7136947 4.16821772,32.1683263 4.51939389,31.6368526 L4.51939389,31.6368526 Z M51.6395862,14.1920105 L54.6297991,12.3127474 L54.6297991,15.1889579 L51.6395862,17.1481158 L51.6395862,14.1920105 Z M62.8807005,31.0150632 C56.9524296,22.0425368 56.7542411,15.5259053 62.275704,11.4616947 L52.8843492,1.35327368 C52.5192651,1.5478 52.157658,1.7458 51.7925738,1.9438 C46.664011,4.61158947 40.4749657,5.94548421 33.2219609,5.95937895 C25.9550481,5.94548421 19.7660027,4.61158947 14.6200549,1.9438 C14.2584478,1.7458 13.8933637,1.5478 13.5456645,1.35327368 L4.15430975,11.4616947 C9.67577266,15.5259053 9.47758413,22.0425368 3.56322115,31.0150632 C-0.0806662088,36.5034842 -0.929052198,42.2315895 1.0145862,48.2028526 C3.44152644,55.6921158 9.26548764,59.7215895 18.5073317,60.3155895 C24.2547991,60.6803263 29.1573575,62.6950632 33.2219609,66.3771684 C37.2726563,62.6950632 42.1717376,60.6803263 47.922682,60.3155895 C57.1610491,59.7215895 62.9884873,55.6921158 65.4154275,48.2028526 C67.341681,42.2315895 66.507203,36.5034842 62.8807005,31.0150632 L62.8807005,31.0150632 Z" id="Fill-36" fill="#000000" mask="url(#mask-2)"></path>
                <path d="M24.3771892,12.7045789 C23.7408997,14.5838421 22.7082332,15.6780526 21.2826666,15.9802632 C22.767342,13.7501579 22.7395261,11.0823684 21.2061727,8.00815789 C21.7346755,8.293 22.2214543,8.67163158 22.6769402,9.12668421 C23.633113,10.0680526 24.2242016,11.1587895 24.467591,12.4023684 C24.4362981,12.4926842 24.4084821,12.6003684 24.3771892,12.7045789 M23.3132297,17.5851053 C22.5865385,17.6163684 21.8598472,17.3593158 21.1296789,16.7965789 C21.1609718,16.7514211 21.1922648,16.7201579 21.2061727,16.675 C22.6943252,16.4804737 23.8173935,15.5842632 24.5892857,13.9933158 C24.5440848,15.3445789 24.1025069,16.5395263 23.3132297,17.5851053 M22.6769402,18.2972105 C21.8876631,19.0857368 20.9940762,19.6311053 19.9927026,19.9367895 C20.4481885,19.2212105 20.5976992,18.3736316 20.4760045,17.3419474 C20.5212054,17.3280526 20.5698832,17.2967895 20.6150841,17.269 C21.3139595,17.8282632 22.0267428,18.1617368 22.7221411,18.2520526 C22.7082332,18.2694211 22.6943252,18.2833158 22.6769402,18.2972105 M18.9009272,20.1625789 C18.6436298,20.1799474 18.3689475,20.1938421 18.0942651,20.2077368 C16.8216861,20.1938421 15.6708019,19.8742632 14.6520433,19.2212105 C16.866887,19.3740526 18.5045501,18.8425789 19.5685096,17.6302632 L19.5685096,17.6163684 C19.6450034,17.6163684 19.7354052,17.599 19.811899,17.5851053 C19.9162088,18.6619474 19.6137105,19.5268947 18.9009272,20.1625789 M13.515067,18.2972105 C12.9239784,17.7066842 12.4824004,17.0848947 12.1625172,16.3866842 C14.2730512,17.6476316 16.3974931,17.995 18.567136,17.4357368 C18.6123369,17.4496316 18.6436298,17.4808947 18.7027387,17.5086842 C17.5657624,18.4639474 15.8516054,18.7522632 13.5741758,18.3423684 C13.5428829,18.3284737 13.5289749,18.3145789 13.515067,18.2972105 M11.6027215,13.705 C11.6027215,12.1731053 12.0755924,10.8253158 13.0282881,9.65815789 C13.1812758,13.7223684 14.9719265,16.0844737 18.4002404,16.7687895 C16.1541037,17.3280526 13.9531679,16.8591053 11.80091,15.3272105 C11.6653073,14.8131053 11.6027215,14.2816316 11.6027215,13.705 M16.880795,7.32384211 C19.3112122,9.79363158 20.2952009,12.5378421 19.9023008,15.5703684 C19.7666981,15.6016316 19.6589114,15.6294211 19.5233087,15.6919474 C19.2173334,15.7961579 18.977421,15.949 18.7792325,16.1296316 C15.3648266,15.5252105 13.6819626,13.1283684 13.7097785,8.93215789 C14.6381353,8.08110526 15.6986178,7.53573684 16.880795,7.32384211 M20.8723815,16.3137368 C20.8584736,16.3866842 20.8132727,16.4804737 20.7228709,16.5707895 C20.674193,16.6298421 20.6289921,16.6923684 20.5698832,16.7375263 C20.4308036,16.8591053 20.25,16.9633158 20.0379035,17.0397368 C19.7806061,17.1300526 19.5372167,17.1752105 19.3112122,17.1752105 C19.2799193,17.1613158 19.2486264,17.1613158 19.2173334,17.1613158 C19.0539148,17.1300526 18.9461281,17.071 18.8835422,16.9633158 C18.8383413,16.8591053 18.8557263,16.7514211 18.9600361,16.6159474 C18.9600361,16.6159474 18.977421,16.6020526 18.977421,16.5846842 L18.991329,16.5846842 C19.1443166,16.3866842 19.3842291,16.2373158 19.6902043,16.1157368 C19.8710079,16.0393158 20.0657194,15.9941579 20.25,15.9802632 C20.3264938,15.9802632 20.4168956,15.9802632 20.5072974,15.9941579 C20.6150841,16.0080526 20.7054859,16.0393158 20.7819797,16.0844737 C20.8132727,16.1157368 20.8410886,16.147 20.8723815,16.1921579 L20.8723815,16.2060526 C20.8723815,16.2373158 20.8862895,16.2685789 20.8723815,16.3137368 M18.0942651,7.21963158 C18.8557263,7.21963158 19.5372167,7.33773684 20.2047991,7.55310526 C20.2187071,7.567 20.2187071,7.58089474 20.2187071,7.59826316 C21.9641569,10.7037368 22.1171446,13.3715263 20.7228709,15.5703684 C20.7054859,15.553 20.674193,15.553 20.6429001,15.5391053 C20.9940762,12.5065789 20.0379035,9.73457895 17.7465659,7.23352632 C17.8682606,7.21963158 17.9760474,7.21963158 18.0942651,7.21963158 M18.0803571,6.53531579 C16.0915179,6.52142105 14.4086538,7.23352632 12.9969952,8.64384211 C11.5888135,10.0367895 10.8899382,11.7354211 10.8899382,13.7223684 C10.8899382,15.6919474 11.5888135,17.3905789 12.9969952,18.7974211 C13.087397,18.8738421 13.1812758,18.9641579 13.2716775,19.0405789 C14.6207503,20.2841579 16.2132126,20.9059474 18.0803571,20.9059474 C20.0518115,20.9059474 21.7520604,20.1938421 23.1637191,18.7974211 C24.5579928,17.3905789 25.2707761,15.6919474 25.2707761,13.7223684 C25.2707761,11.7354211 24.5579928,10.0367895 23.1637191,8.64384211 C21.7520604,7.23352632 20.0518115,6.52142105 18.0803571,6.53531579" id="Fill-37" fill="#000000" mask="url(#mask-2)"></path>
            </g>
        </g>
    </g>
</svg>