<?xml version="1.0" encoding="UTF-8"?>
<svg width="169px" height="49px" viewBox="0 0 169 49" version="1.1" xmlns="http://www.w3.org/2000/svg" xmlns:xlink="http://www.w3.org/1999/xlink">
    <!-- Generator: Sketch 40.1 (33804) - http://www.bohemiancoding.com/sketch -->
    <title>logo-escudo3d</title>
    <desc>Created with Sketch.</desc>
    <defs></defs>
    <g id="Page-1" stroke="none" stroke-width="1" fill="none" fill-rule="evenodd">
        <g id="layout-base" transform="translate(-391.000000, -19.000000)" fill="#FEFEFE">
            <g id="header">
                <g id="logo-escudo3d" transform="translate(391.000000, 18.000000)">
                    <g id="Group-2">
                        <polygon id="Fill-1" points="55.0752364 28.1981111 55.0752364 32.3047778 43.3610182 32.3047778 43.3610182 13.637 54.9421455 13.637 54.9421455 17.7436667 47.6210364 17.7436667 47.6210364 20.837 54.2755818 20.837 54.2755818 24.8914444 47.6210364 24.8914444 47.6210364 28.1981111"></polygon>
                        <g id="Group-25" transform="translate(0.000000, 0.561889)">
                            <path d="M56.5374618,27.5026667 L60.21188,25.3693333 C60.8762255,26.916 62.0208073,27.956 64.1247527,27.956 C66.1477345,27.956 66.65348,27.156 66.65348,26.436 C66.65348,25.2893333 65.5887527,24.836 62.7938436,24.0626667 C60.0255527,23.2893333 57.3093891,21.956 57.3093891,18.3826667 C57.3093891,14.7815556 60.3449709,12.7015556 63.5657709,12.7015556 C66.6268618,12.7015556 69.0224982,14.1682222 70.3800255,16.9148889 L66.7865709,19.0215556 C66.1477345,17.6882222 65.2693345,16.8615556 63.5657709,16.8615556 C62.2348618,16.8615556 61.5682982,17.5282222 61.5682982,18.2748889 C61.5682982,19.1282222 62.0208073,19.716 64.9232982,20.596 C67.7448255,21.4493333 70.9123891,22.4348889 70.9123891,26.3826667 C70.9123891,29.9826667 68.0376255,32.116 63.9916618,32.116 C60.07768,32.116 57.57668,30.2493333 56.5374618,27.5026667" id="Fill-2"></path>
                            <path d="M72.1102073,22.4088889 C72.1102073,16.9155556 76.1827891,12.7011111 81.7992255,12.7011111 C85.1797345,12.7011111 88.16208,14.3811111 89.7857891,17.0222222 L86.11248,19.1555556 C85.2873164,17.7155556 83.6891164,16.8622222 81.7992255,16.8622222 C78.4985709,16.8622222 76.3691164,19.0755556 76.3691164,22.4088889 C76.3691164,25.7422222 78.4985709,27.9566667 81.7992255,27.9566667 C83.6891164,27.9566667 85.3128255,27.1033333 86.11248,25.6622222 L89.7857891,27.7966667 C88.1886982,30.4366667 85.2074618,32.1166667 81.7992255,32.1166667 C76.1827891,32.1166667 72.1102073,27.9033333 72.1102073,22.4088889" id="Fill-4"></path>
                            <path d="M91.6481745,25.7161111 L91.6481745,13.075 L95.9070836,13.075 L95.9070836,25.3427778 C95.9070836,26.7561111 96.5725382,27.9561111 98.8350836,27.9561111 C101.098738,27.9561111 101.763084,26.7561111 101.763084,25.3427778 L101.763084,13.075 L106.023102,13.075 L106.023102,25.7161111 C106.023102,29.7161111 102.935393,32.1161111 98.8350836,32.1161111 C94.7358836,32.1161111 91.6481745,29.7161111 91.6481745,25.7161111" id="Fill-6"></path>
                            <path d="M121.487489,22.4088889 C121.487489,19.2088889 119.464507,17.1822222 116.536507,17.1822222 L113.341216,17.1822222 L113.341216,27.6366667 L116.536507,27.6366667 C119.464507,27.6366667 121.487489,25.6088889 121.487489,22.4088889 M125.586689,22.4088889 C125.586689,27.6888889 121.673816,31.7433333 116.536507,31.7433333 L109.082307,31.7433333 L109.082307,13.0755556 L116.536507,13.0755556 C121.673816,13.0755556 125.586689,17.1288889 125.586689,22.4088889" id="Fill-8"></path>
                            <path d="M142.303462,22.4088889 C142.303462,19.0755556 139.907825,16.8622222 136.873353,16.8622222 C133.837771,16.8622222 131.442135,19.0755556 131.442135,22.4088889 C131.442135,25.7422222 133.837771,27.9566667 136.873353,27.9566667 C139.907825,27.9566667 142.303462,25.7422222 142.303462,22.4088889 M127.182116,22.4088889 C127.182116,16.9155556 131.521989,12.7011111 136.873353,12.7011111 C142.223607,12.7011111 146.562371,16.9155556 146.562371,22.4088889 C146.562371,27.9033333 142.223607,32.1166667 136.873353,32.1166667 C131.521989,32.1166667 127.182116,27.9033333 127.182116,22.4088889" id="Fill-10"></path>
                            <g id="Group-20">
                                <path d="M34.4258491,0.549222222 L18.3662127,1.257 L0.0163036364,2.06588889 L1.22188545,34.0103333 C1.22188545,34.0103333 1.17086727,34.7103333 1.40266727,35.8303333 C1.63224909,36.9425556 2.13910364,38.4592222 3.24043091,40.0936667 C4.32512182,41.7014444 5.97323091,43.4058889 8.46757636,44.9203333 C10.8942673,46.3947778 14.0906673,47.6714444 18.2785945,48.4925556 C22.3400855,45.8503333 25.27474,43.3258889 27.4130673,41.0203333 C29.5347582,38.7314444 30.89894,36.6292222 31.7795582,34.8358889 C32.6612855,33.0414444 33.0649945,31.547 33.2479945,30.497 C33.4332127,29.4436667 33.3955036,28.8392222 33.3955036,28.8392222 L34.4258491,0.549222222 M18.1321945,44.8592222 C18.1321945,44.8592222 17.3469582,44.747 16.1546855,44.4325556 C14.9491036,44.1147778 13.3143036,43.5881111 11.6429036,42.757 C9.94044909,41.9114444 8.19363091,40.7481111 6.82834,39.1725556 C5.43754,37.567 4.44712182,35.5392222 4.31624909,33.0081111 L3.48997636,5.90811111 L18.1920855,5.04366667 L31.38694,4.26811111 L30.6471764,28.8258889 C30.53294,31.1492222 29.7133218,33.2858889 28.54434,35.1925556 C27.3742491,37.1025556 25.8459218,38.7981111 24.3187036,40.2203333 C22.7815036,41.6503333 21.2420855,42.8058889 20.0808673,43.6081111 C18.9129945,44.4136667 18.1321945,44.8592222 18.1321945,44.8592222" id="Fill-14"></path>
                                <path d="M13.2850236,8.96177778 C12.6450782,9.30511111 12.0916418,9.734 11.6213873,10.2306667 C11.1511327,10.7273333 10.7651691,11.2906667 10.4612782,11.9017778 C10.1584964,12.5128889 9.93667818,13.1717778 9.79471455,13.8573333 C9.65275091,14.5417778 9.59064182,15.2528889 9.60284182,15.9728889 C9.61947818,16.8851111 9.76033273,17.7551111 10.0231873,18.5384444 C10.2849327,19.3162222 10.6653509,20.0084444 11.1611145,20.5706667 C11.65466,21.1295556 12.2602236,21.5606667 12.9755873,21.8217778 C13.6854055,22.0817778 14.5039145,22.1751111 15.42446,22.0606667 C16.0011873,21.9895556 16.53466,21.8228889 17.0204418,21.5784444 C17.5051145,21.334 17.9432055,21.0117778 18.3324964,20.6262222 C18.7206782,20.2417778 19.06006,19.794 19.3462055,19.2995556 C19.6323509,18.8062222 19.8663691,18.264 20.0438236,17.6906667 L23.52526,20.3673333 L26.4077873,20.0195556 L26.6373691,8.56511111 L23.2213691,8.82066667 L23.1370782,15.4973333 L19.4393691,12.544 L17.2699873,14.3484444 L17.2710964,15.2217778 C17.2710964,15.6551111 17.2189691,16.0317778 17.1246964,16.3562222 C17.0315327,16.6806667 16.8951145,16.9517778 16.7265327,17.1728889 C16.5579509,17.394 16.3572055,17.5651111 16.1342782,17.6873333 C15.9102418,17.8106667 15.6640236,17.884 15.4044964,17.9128889 C15.1471873,17.9395556 14.9009691,17.9184444 14.6758236,17.844 C14.4495691,17.7684444 14.2454964,17.6395556 14.0724782,17.4528889 C13.89946,17.2651111 13.7574964,17.0195556 13.6576782,16.7106667 C13.5589691,16.4017778 13.5012964,16.0306667 13.4979691,15.5917778 C13.4935327,15.1828889 13.5345691,14.8217778 13.6133145,14.5006667 C13.6931691,14.1806667 13.8129509,13.9017778 13.9671145,13.6573333 C14.1223873,13.4128889 14.3131509,13.204 14.53386,13.0228889 C14.7556782,12.8417778 15.0074418,12.6895556 15.2858236,12.5595556 L13.2850236,8.96177778" id="Fill-16"></path>
                                <path d="M26.3698564,21.9394444 L10.0983836,24.0305556 L10.2192745,31.215 C10.2392382,32.4272222 10.4887836,33.5238889 10.9224382,34.4716667 C11.3527655,35.4116667 11.9649836,36.2016667 12.7158382,36.8138889 C13.4600382,37.4194444 14.3395473,37.8483333 15.3144382,38.0727778 C16.2804564,38.2938889 17.3396382,38.3138889 18.4531655,38.105 C19.5600382,37.8983333 20.59482,37.4894444 21.5242382,36.9238889 C22.44922,36.3605556 23.2732745,35.6416667 23.96202,34.8072222 C24.6507655,33.975 25.20642,33.0261111 25.5957109,32.0016667 C25.9861109,30.975 26.2112564,29.8694444 26.2345473,28.7227778 L26.3698564,21.9394444 M18.4609291,34.4405556 C17.7799473,34.5583333 17.1588564,34.5516667 16.6087473,34.4316667 C16.05642,34.3116667 15.5750745,34.0783333 15.1791291,33.7461111 C14.7809655,33.4116667 14.4682018,32.9772222 14.2530382,32.455 C14.0378745,31.9316667 13.9203109,31.3216667 13.9147655,30.6405556 L13.8903655,27.6283333 L22.9161473,26.3272222 L22.8806564,29.245 C22.8717836,29.9061111 22.7597655,30.5305556 22.5545836,31.1038889 C22.3494018,31.6772222 22.0510564,32.1994444 21.6717473,32.6538889 C21.29022,33.1083333 20.82662,33.4961111 20.28982,33.7994444 C19.7519109,34.1038889 19.1385836,34.3238889 18.4609291,34.4405556" id="Fill-18"></path>
                            </g>
                            <path d="M157.524958,14.6011111 C157.524958,17.04 155.628413,18.3066667 153.493413,18.3066667 C151.817576,18.3066667 150.30034,17.5622222 149.621576,15.9311111 L151.803158,14.6644444 C152.054922,15.3922222 152.529613,15.8355556 153.493413,15.8355556 C154.538176,15.8355556 154.996231,15.2822222 154.996231,14.6011111 C154.996231,13.92 154.538176,13.3655556 153.493413,13.3655556 L152.973249,13.3655556 L152.00834,11.9244444 L154.015795,9.37555556 L149.969831,9.37555556 L149.969831,7 L157.082431,7 L157.082431,9.05888889 L155.169249,11.4977778 C156.528995,11.9722222 157.524958,13.0655556 157.524958,14.6011111" id="Fill-21"></path>
                            <path d="M165.987049,12.5422222 C165.987049,10.6422222 164.785904,9.43888889 163.047958,9.43888889 L161.151413,9.43888889 L161.151413,15.6455556 L163.047958,15.6455556 C164.785904,15.6455556 165.987049,14.4422222 165.987049,12.5422222 M168.421504,12.5422222 C168.421504,15.6777778 166.097958,18.0844444 163.047958,18.0844444 L158.621576,18.0844444 L158.621576,7 L163.047958,7 C166.097958,7 168.421504,9.40666667 168.421504,12.5422222" id="Fill-23"></path>
                        </g>
                    </g>
                </g>
            </g>
        </g>
    </g>
</svg>