<?xml version="1.0" encoding="UTF-8"?>
<svg width="46px" height="72px" viewBox="0 0 46 72" version="1.1" xmlns="http://www.w3.org/2000/svg" xmlns:xlink="http://www.w3.org/1999/xlink">
    <!-- Generator: Sketch 40.1 (33804) - http://www.bohemiancoding.com/sketch -->
    <title>icon-seguranca</title>
    <desc>Created with Sketch.</desc>
    <defs></defs>
    <g id="Page-1" stroke="none" stroke-width="1" fill="none" fill-rule="evenodd">
        <g id="icones" transform="translate(-621.000000, -22.000000)" fill="#17633A">
            <g id="icon-seguranca" transform="translate(621.500000, 22.000000)">
                <path d="M27,45 C27,42.512625 24.985125,40.5 22.5,40.5 C20.014875,40.5 18,42.5127656 18,45 C18,46.6479844 18.9293906,48.0277969 20.25,48.8100937 L20.25,56.25 C20.25,57.4936875 21.2563125,58.5 22.5,58.5 C23.7436875,58.5 24.75,57.4936875 24.75,56.25 L24.75,48.8100937 C26.0706094,48.0277969 27,46.6479844 27,45 M45,49.5 C45,61.9277344 34.9277344,72 22.5,72 C10.0745156,72 0,61.9277344 0,49.5 C0,37.0722656 10.0745156,27 22.5,27 C34.9277344,27 45,37.0722656 45,49.5 M0,34.6069687 L0,22.5 C0,10.0722656 10.0745156,0 22.5,0 C34.9277344,0 45,10.0722656 45,22.5 L45,34.6069687 C42.6972656,31.1397187 39.607875,28.2480469 36,26.1518906 L36,22.5 C36,15.0555937 29.9442656,9 22.5,9 C15.0557344,9 9,15.0557344 9,22.5 L9,26.1518906 C5.389875,28.2480469 2.30273438,31.1397187 0,34.6069687" id="Page-1"></path>
            </g>
        </g>
    </g>
</svg>