<?xml version="1.0" encoding="UTF-8"?>
<svg width="94px" height="50px" viewBox="0 0 94 50" version="1.1" xmlns="http://www.w3.org/2000/svg" xmlns:xlink="http://www.w3.org/1999/xlink">
    <!-- Generator: Sketch 40.1 (33804) - http://www.bohemiancoding.com/sketch -->
    <title>icon-despache</title>
    <desc>Created with Sketch.</desc>
    <defs>
        <polygon id="path-1" points="21.1190196 0.274153846 -1.86506287e-14 0.274153846 -1.86506287e-14 49.8461538 93.8136109 49.8461538 93.8136109 0.274153846 21.1190196 0.274153846 21.1190196 5.59211538 -5.82502064e-05 5.59211538 -5.82502064e-05 0.272770151 21.1190196 0.272770151 21.1190196 0.274153846"></polygon>
    </defs>
    <g id="Page-1" stroke="none" stroke-width="1" fill="none" fill-rule="evenodd">
        <g id="icones" transform="translate(-301.000000, -35.000000)">
            <g id="icon-despache" transform="translate(300.500000, 34.000000)">
                <g id="Group-3" transform="translate(0.000000, 0.880938)">
                    <mask id="mask-2" fill="white">
                        <use xlink:href="#path-1"></use>
                    </mask>
                    <g id="Clip-2"></g>
                    <path d="M21.0557631,2.93780769 C20.7399345,4.40203846 19.288999,5.59211538 17.8130474,5.59211538 L2.15920464,5.59211538 C0.68638004,5.59211538 -0.254851815,4.40203846 0.0609768145,2.93780769 C0.37993246,1.47046154 1.83399496,0.277269231 3.30681956,0.277269231 L18.9606623,0.277269231 C20.458503,0.186923077 21.3747187,1.47046154 21.0557631,2.93780769" id="Fill-1" fill="#000000" mask="url(#mask-2)"></path>
                </g>
                <path d="M18.7386442,14.5356692 C18.4196885,16.0030154 16.968753,17.1930923 15.4959284,17.1930923 L4.19801915,17.1930923 C2.72832157,17.1930923 1.78708972,16.0030154 2.10604536,14.5325538 C2.42187399,13.0714385 3.87906351,11.8782462 5.34876109,11.8782462 L16.6435433,11.8782462 C18.1382571,11.7879 19.0544728,13.0714385 18.7386442,14.5356692" id="Fill-4" fill="#17633A"></path>
                <path d="M16.4183982,25.2525923 L16.4183982,25.2525923 C16.0994425,26.7230538 14.6485071,27.9131308 13.1756825,27.9131308 L6.60894859,27.9131308 C5.13925101,27.9131308 4.19801915,26.7230538 4.5169748,25.2525923 C4.83280343,23.7914769 6.28686593,22.5982846 7.75656351,22.5982846 L14.3232974,22.5982846 C15.799249,22.5982846 16.7342268,23.7914769 16.4183982,25.2525923" id="Fill-6" fill="#17633A"></path>
                <path d="M49.4271804,19.4299385 L46.3408155,17.0092846 L47.3226986,12.5137846 C47.4352712,12.0059769 47.1100615,11.5916308 46.6003579,11.5916308 C46.0875272,11.5916308 45.5872046,12.0028615 45.4746321,12.5106692 L44.3833034,17.5015154 C44.3145091,17.8099385 44.4051925,18.0965538 44.6240837,18.2679 L48.0638014,20.9627077 C48.1982631,21.0686308 48.367122,21.1184769 48.5453619,21.1184769 C48.8424284,21.1184769 49.1676381,20.9782846 49.3990373,20.7134769 C49.7774062,20.2897846 49.7899143,19.7165538 49.4271804,19.4299385 L49.4271804,19.4299385 Z M53.608001,17.5077462 C52.6229909,22.0655538 48.1107067,25.7635154 43.532755,25.7635154 C38.9548034,25.7635154 36.0435514,22.0655538 37.0316885,17.5077462 C38.0166986,12.9468231 42.5289829,9.25197692 47.1069345,9.25197692 C51.6817591,9.25197692 54.5930111,12.9468231 53.608001,17.5077462 L53.608001,17.5077462 Z M55.5936562,17.5077462 C56.8194466,11.8533231 53.2046159,7.27059231 47.5322087,7.27059231 C41.8566744,7.27059231 36.2655696,11.8533231 35.0429062,17.5077462 C33.8202429,23.1621692 37.4288196,27.7449 43.1043538,27.7449 C48.7798881,27.7449 54.37412,23.1590538 55.5936562,17.5077462 L55.5936562,17.5077462 Z M72.0792853,2.28286154 L65.4937893,32.7295154 C65.3593276,33.3525923 64.7401784,33.8541692 64.1210292,33.8541692 L19.4484768,33.8541692 C18.8262006,33.8541692 18.4259425,33.3494769 18.5604042,32.7295154 L25.1490272,2.28286154 C25.2803619,1.6629 25.8995111,1.15509231 26.5249143,1.15509231 L71.1912127,1.15509231 C71.8103619,1.15509231 72.213747,1.6629 72.0792853,2.28286154 L72.0792853,2.28286154 Z M88.2115615,21.6854769 L85.1533397,13.4826692 C84.8812893,12.7692462 84.6936683,12.4888615 84.1464405,12.4888615 L77.3514345,12.4888615 C76.8042067,12.4888615 76.2632329,12.9312462 76.1475333,13.4764385 L74.2744506,22.1278615 C74.155624,22.6730538 74.5027228,23.1185538 75.0499506,23.1185538 L87.1702651,23.1185538 C87.9488921,23.1185538 88.5336442,22.5515538 88.2115615,21.6854769 L88.2115615,21.6854769 Z M93.740126,27.5579769 L90.5067913,42.4993615 C90.3723296,43.1224385 89.7531804,43.6271308 89.1309042,43.6271308 L85.6161381,43.6271308 C84.9969889,43.6271308 84.3559506,43.2314769 84.2715212,42.5865923 C84.1276784,41.4120923 84.9719728,33.8136692 76.5259022,33.8136692 L69.2618437,33.8136692 C68.6426946,33.8136692 68.2393095,33.3058615 68.3737712,32.6859 L73.1706139,10.5074769 C73.3050756,9.88751538 73.9273518,9.37970769 74.546501,9.37970769 L86.4541784,9.37970769 C87.0764546,9.37970769 87.7518901,9.81586154 87.9520192,10.3517077 L93.6181724,25.4613231 C93.8183014,25.9940538 93.8745877,26.9349 93.740126,27.5579769 L93.740126,27.5579769 Z M27.1690796,37.1938615 C23.4166603,37.1938615 19.7205272,40.2282462 18.9137571,43.9604769 C18.1069869,47.6989385 20.4897732,50.7270923 24.2421925,50.7270923 C27.9946119,50.7270923 31.690745,47.6958231 32.4975151,43.9604769 C33.3042853,40.2282462 30.921499,37.1938615 27.1690796,37.1938615 L27.1690796,37.1938615 Z M75.131253,37.1938615 C71.3788337,37.1938615 67.6827006,40.2282462 66.8759304,43.9604769 C66.0660333,47.6989385 68.4519466,50.7270923 72.2012389,50.7270923 C75.9536583,50.7270923 79.6497913,47.6958231 80.4596885,43.9604769 C81.2664587,40.2282462 78.8836724,37.1938615 75.131253,37.1938615 L75.131253,37.1938615 Z M36.2092833,37.5988615 C36.343745,36.9789 36.9628942,36.4742077 37.5851704,36.4742077 L63.5519123,36.4742077 C64.1741885,36.4742077 64.5744466,36.9820154 64.4399849,37.5988615 L63.8583599,40.2780923 C63.7238982,40.8980538 63.107876,41.4058615 62.4855998,41.4058615 L36.5157308,41.4058615 C35.8965817,41.4058615 35.4963236,40.8980538 35.6307853,40.2780923 L36.2092833,37.5988615 Z" id="Fill-8" fill="#17633A"></path>
            </g>
        </g>
    </g>
</svg>