<?xml version="1.0" encoding="UTF-8"?>
<svg width="77px" height="70px" viewBox="0 0 77 70" version="1.1" xmlns="http://www.w3.org/2000/svg" xmlns:xlink="http://www.w3.org/1999/xlink">
    <!-- Generator: Sketch 40.1 (33804) - http://www.bohemiancoding.com/sketch -->
    <title>icon-atendimento</title>
    <desc>Created with Sketch.</desc>
    <defs>
        <polygon id="path-1" points="0 0.376829445 0 69.7318893 76.1830426 69.7318893 76.1830426 0.376829445 0 0.376829445"></polygon>
    </defs>
    <g id="Page-1" stroke="none" stroke-width="1" fill="none" fill-rule="evenodd">
        <g id="icones" transform="translate(-27.000000, -24.000000)">
            <g id="icon-atendimento" transform="translate(27.000000, 23.000000)">
                <path d="M66.8041902,32.5216768 C65.6542393,18.1898196 53.2319934,6.90969464 38.3558459,6.90969464 C23.4784361,6.90969464 8.43187869,16.7596768 9.97314098,38.7785518 C13.2601574,27.6074625 29.7103869,41.1671946 50.9106328,17.6078732 C47.5567148,27.0546768 60.1582066,31.5872661 66.8041902,32.5216768 L66.8041902,32.5216768 Z" id="Fill-1" fill="#17633A"></path>
                <path d="M46.0976279,54.2078661 C47.5606279,56.9984196 44.4528574,61.4701518 38.4859885,61.4701518 C32.9104311,61.4701518 29.0023656,56.9667232 30.518382,54.3574732 C32.3701689,55.4668482 35.1194475,56.1705089 38.1880869,56.1705089 C41.3917918,56.1705089 44.2471033,55.4034554 46.0976279,54.2078661 L46.0976279,54.2078661 Z" id="Fill-3" fill="#17633A"></path>
                <path d="M27.0161443,34.2562321 C30.1125541,34.2562321 32.623259,36.8502679 32.623259,40.0516071 C32.623259,43.2516786 30.1125541,45.8457143 27.0161443,45.8457143 C23.9197344,45.8457143 21.4090295,43.2516786 21.4090295,40.0516071 C21.4090295,36.8502679 23.9197344,34.2562321 27.0161443,34.2562321" id="Fill-5" fill="#17633A"></path>
                <path d="M48.8073967,34.2562321 C51.9038066,34.2562321 54.4145115,36.8502679 54.4145115,40.0516071 C54.4145115,43.2516786 51.9038066,45.8457143 48.8073967,45.8457143 C45.7109869,45.8457143 43.200282,43.2516786 43.200282,40.0516071 C43.200282,36.8502679 45.7109869,34.2562321 48.8073967,34.2562321" id="Fill-7" fill="#17633A"></path>
                <g id="Group-11" transform="translate(0.000000, 0.891050)">
                    <mask id="mask-2" fill="white">
                        <use xlink:href="#path-1"></use>
                    </mask>
                    <g id="Clip-10"></g>
                    <path d="M76.1830426,35.760925 C76.1830426,30.5614429 73.9273213,26.1987464 70.8826656,24.99555 C66.8319607,11.2152107 54.3794197,0.940496429 39.2949934,0.399121429 C23.4203705,-0.170146429 9.6878623,10.2224786 5.32032131,24.81805 C2.26556721,26.0098357 -0.000252459016,30.3814071 -0.000252459016,35.5910321 C-0.000252459016,41.1594607 2.58745246,45.7681214 5.96030492,46.5630679 C10.3013377,58.4327464 20.9967639,67.3001393 34.0425836,68.8418536 C34.5159443,69.3870321 35.2114689,69.7318893 35.9890426,69.7318893 C37.4129115,69.7318893 38.5666492,68.5730679 38.5666492,67.1416571 C38.5666492,65.7127821 37.4129115,64.5526929 35.9890426,64.5526929 C35.2064197,64.5526929 34.5058459,64.9026214 34.0324852,65.4554071 C18.430518,63.4052821 6.65330492,49.7263714 7.22512459,33.6119071 C7.83355082,16.4983714 22.139141,3.12247857 39.1763377,3.73231786 C56.2135344,4.343425 69.5320098,18.7107821 68.9235836,35.8243179 C68.7923049,39.5201214 68.0033705,43.1588714 66.5984361,46.570675 C73.6660262,47.5481929 76.1830426,40.4976393 76.1830426,35.760925 L76.1830426,35.760925 L76.1830426,35.760925 Z M38.0743541,34.7288893 L38.3255508,34.8328536 L38.0743541,34.7174786 L38.0743541,34.7288893 L38.0743541,34.7288893 Z" id="Fill-9" fill="#17633A" mask="url(#mask-2)"></path>
                </g>
            </g>
        </g>
    </g>
</svg>