<?xml version="1.0" encoding="UTF-8"?>
<svg width="183px" height="49px" viewBox="0 0 183 49" version="1.1" xmlns="http://www.w3.org/2000/svg" xmlns:xlink="http://www.w3.org/1999/xlink">
    <!-- Generator: Sketch 40.1 (33804) - http://www.bohemiancoding.com/sketch -->
    <title>logo-escudo3d</title>
    <desc>Created with Sketch.</desc>
    <defs>
        <polygon id="path-1" points="10.7592909 11.734 10.7592909 0.649555556 0.959474545 0.649555556 0.959474545 11.734 10.7592909 11.734"></polygon>
    </defs>
    <g id="Page-1" stroke="none" stroke-width="1" fill="none" fill-rule="evenodd">
        <g id="Desktop" transform="translate(-391.000000, -19.000000)">
            <g id="header">
                <g id="logo-escudo3d" transform="translate(391.000000, 18.000000)">
                    <polygon id="Fill-1" fill="#FEFEFE" points="55.0686927 28.1978889 55.0686927 32.3045556 43.3544745 32.3045556 43.3544745 13.6367778 54.9356018 13.6367778 54.9356018 17.7434444 47.6144927 17.7434444 47.6144927 20.8367778 54.2690382 20.8367778 54.2690382 24.8912222 47.6144927 24.8912222 47.6144927 28.1978889"></polygon>
                    <g id="Group-28" transform="translate(0.000000, 0.560667)">
                        <path d="M56.5308073,27.5037778 L60.2052255,25.3704444 C60.8695709,26.9171111 62.0141527,27.9571111 64.1180982,27.9571111 C66.14108,27.9571111 66.6468255,27.1571111 66.6468255,26.4371111 C66.6468255,25.2904444 65.5820982,24.8371111 62.7871891,24.0637778 C60.0188982,23.2904444 57.3027345,21.9571111 57.3027345,18.3837778 C57.3027345,14.7826667 60.3383164,12.7026667 63.5591164,12.7026667 C66.6202073,12.7026667 69.0158436,14.1693333 70.3733709,16.916 L66.7799164,19.0226667 C66.14108,17.6893333 65.26268,16.8626667 63.5591164,16.8626667 C62.2282073,16.8626667 61.5616436,17.5293333 61.5616436,18.276 C61.5616436,19.1293333 62.0141527,19.7171111 64.9166436,20.5971111 C67.7381709,21.4504444 70.9057345,22.436 70.9057345,26.3837778 C70.9057345,29.9837778 68.0309709,32.1171111 63.9850073,32.1171111 C60.0710255,32.1171111 57.5700255,30.2504444 56.5308073,27.5037778" id="Fill-2" fill="#FEFEFE"></path>
                        <path d="M72.1035527,22.4098889 C72.1035527,16.9165556 76.1761345,12.7021111 81.7925709,12.7021111 C85.17308,12.7021111 88.1554255,14.3821111 89.7791345,17.0232222 L86.1058255,19.1565556 C85.2806618,17.7165556 83.6824618,16.8632222 81.7925709,16.8632222 C78.4919164,16.8632222 76.3624618,19.0765556 76.3624618,22.4098889 C76.3624618,25.7432222 78.4919164,27.9576667 81.7925709,27.9576667 C83.6824618,27.9576667 85.3061709,27.1043333 86.1058255,25.6632222 L89.7791345,27.7976667 C88.1820436,30.4376667 85.2008073,32.1176667 81.7925709,32.1176667 C76.1761345,32.1176667 72.1035527,27.9043333 72.1035527,22.4098889" id="Fill-4" fill="#FEFEFE"></path>
                        <path d="M91.6416309,25.7172222 L91.6416309,13.0761111 L95.90054,13.0761111 L95.90054,25.3438889 C95.90054,26.7572222 96.5659945,27.9572222 98.82854,27.9572222 C101.092195,27.9572222 101.75654,26.7572222 101.75654,25.3438889 L101.75654,13.0761111 L106.016558,13.0761111 L106.016558,25.7172222 C106.016558,29.7172222 102.928849,32.1172222 98.82854,32.1172222 C94.72934,32.1172222 91.6416309,29.7172222 91.6416309,25.7172222" id="Fill-6" fill="#FEFEFE"></path>
                        <path d="M121.480945,22.4098889 C121.480945,19.2098889 119.457964,17.1832222 116.529964,17.1832222 L113.334673,17.1832222 L113.334673,27.6376667 L116.529964,27.6376667 C119.457964,27.6376667 121.480945,25.6098889 121.480945,22.4098889 M125.580145,22.4098889 C125.580145,27.6898889 121.667273,31.7443333 116.529964,31.7443333 L109.075764,31.7443333 L109.075764,13.0765556 L116.529964,13.0765556 C121.667273,13.0765556 125.580145,17.1298889 125.580145,22.4098889" id="Fill-8" fill="#FEFEFE"></path>
                        <path d="M142.296918,22.4098889 C142.296918,19.0765556 139.901282,16.8632222 136.866809,16.8632222 C133.831227,16.8632222 131.435591,19.0765556 131.435591,22.4098889 C131.435591,25.7432222 133.831227,27.9576667 136.866809,27.9576667 C139.901282,27.9576667 142.296918,25.7432222 142.296918,22.4098889 M127.175573,22.4098889 C127.175573,16.9165556 131.515445,12.7021111 136.866809,12.7021111 C142.217064,12.7021111 146.555827,16.9165556 146.555827,22.4098889 C146.555827,27.9043333 142.217064,32.1176667 136.866809,32.1176667 C131.515445,32.1176667 127.175573,27.9043333 127.175573,22.4098889" id="Fill-10" fill="#FEFEFE"></path>
                        <path d="M147.351711,27.5037778 L151.026129,25.3704444 C151.691584,26.9171111 152.836165,27.9571111 154.939002,27.9571111 C156.961984,27.9571111 157.467729,27.1571111 157.467729,26.4371111 C157.467729,25.2904444 156.403002,24.8371111 153.608093,24.0637778 C150.839802,23.2904444 148.123638,21.9571111 148.123638,18.3837778 C148.123638,14.7826667 151.15922,12.7026667 154.38002,12.7026667 C157.44222,12.7026667 159.837856,14.1693333 161.194275,16.916 L157.60082,19.0226667 C156.961984,17.6893333 156.083584,16.8626667 154.38002,16.8626667 C153.049111,16.8626667 152.383656,17.5293333 152.383656,18.276 C152.383656,19.1293333 152.836165,19.7171111 155.738656,20.5971111 C158.559075,21.4504444 161.727747,22.436 161.727747,26.3837778 C161.727747,29.9837778 158.851875,32.1171111 154.805911,32.1171111 C150.891929,32.1171111 148.390929,30.2504444 147.351711,27.5037778" id="Fill-12" fill="#FEFEFE"></path>
                        <g id="Group-22">
                            <path d="M34.4167545,0.550444444 L18.3571182,1.25822222 L0.0160818182,2.06711111 L1.22166364,34.0104444 C1.22166364,34.0104444 1.17064545,34.7104444 1.40133636,35.8304444 C1.62980909,36.9426667 2.13555455,38.4604444 3.23577273,40.0948889 C4.31824545,41.7026667 5.96635455,43.4071111 8.45959091,44.9226667 C10.8851727,46.396 14.0804636,47.6737778 18.2695,48.4948889 C22.3309909,45.8515556 25.2656455,43.3282222 27.4039727,41.0215556 C29.5256636,38.7337778 30.8898455,36.6304444 31.7704636,34.8382222 C32.6521909,33.0437778 33.0559,31.5482222 33.2400091,30.4993333 C33.4241182,29.446 33.3864091,28.8415556 33.3864091,28.8415556 L34.4167545,0.550444444 M18.1231,44.8615556 C18.1231,44.8615556 17.3378636,44.7482222 16.1455909,44.4348889 C14.9400091,44.1171111 13.3063182,43.5893333 11.6349182,42.7593333 C9.93246364,41.9126667 8.18675455,40.7493333 6.82257273,39.1737778 C5.43288182,37.5682222 4.44468182,35.5393333 4.31602727,33.0082222 L3.48975455,5.90822222 L18.1818818,5.04488889 L31.3778455,4.26933333 L30.6380818,28.8271111 C30.5260636,31.1515556 29.7075545,33.2871111 28.5385727,35.1937778 C27.3695909,37.1026667 25.8401545,38.7993333 24.3129364,40.2215556 C22.7757364,41.6515556 21.2352091,42.8082222 20.0728818,43.6093333 C18.9039,44.416 18.1231,44.8615556 18.1231,44.8615556" id="Fill-14" fill="#FEFEFE"></path>
                            <path d="M31.3775127,4.26966667 L18.1826582,5.04522222 L3.48942182,5.90855556 L4.31569455,33.0074444 C4.44434909,35.5396667 5.43365818,37.5674444 6.82224,39.173 C8.18642182,40.7496667 9.93324,41.913 11.6345855,42.7585556 C13.3059855,43.5896667 14.9396764,44.1163333 16.1452582,44.4341111 C17.3375309,44.7485556 18.1227673,44.8607778 18.1227673,44.8607778 C18.1227673,44.8607778 18.9046764,44.4163333 20.0736582,43.6096667 C21.2348764,42.8074444 22.7754036,41.6518889 24.3126036,40.2207778 C25.8409309,38.7996667 27.3692582,37.103 28.5393491,35.1941111 C29.7072218,33.2863333 30.52684,31.1507778 30.6377491,28.8274444 L31.3775127,4.26966667 M15.4243491,22.0618889 C14.5026945,22.1752222 13.6852945,22.0818889 12.9754764,21.823 C12.2601127,21.5607778 11.6545491,21.1296667 11.1610036,20.5707778 C10.66524,20.0085556 10.2848218,19.3174444 10.0230764,18.5385556 C9.76022182,17.7552222 9.61936727,16.8863333 9.60273091,15.9741111 C9.59053091,15.2541111 9.65264,14.5418889 9.79349455,13.8574444 C9.93434909,13.1718889 10.1539491,12.5141111 10.4567309,11.903 C10.7595127,11.2918889 11.1443673,10.7285556 11.6135127,10.2318889 C12.0826582,9.73633333 12.6360945,9.30633333 13.2749309,8.963 L15.27684,12.5607778 C14.9973491,12.6918889 14.7455855,12.843 14.5248764,13.0241111 C14.3030582,13.2052222 14.1122945,13.4141111 13.9581309,13.6585556 C13.8028582,13.903 13.6841855,14.1818889 13.6043309,14.503 C13.5244764,14.823 13.4845491,15.1841111 13.4878764,15.593 C13.4923127,16.0318889 13.5488764,16.4041111 13.6486945,16.713 C13.7485127,17.0207778 13.8904764,17.2663333 14.0634945,17.4541111 C14.2376218,17.6407778 14.4428036,17.7696667 14.6701673,17.8452222 C14.8964218,17.9196667 15.1448582,17.9407778 15.4043855,17.913 C15.6639127,17.8852222 15.9090218,17.8107778 16.1319491,17.6885556 C16.3548764,17.5663333 16.5545127,17.3952222 16.7219855,17.1741111 C16.8883491,16.953 17.0236582,16.6818889 17.1168218,16.3574444 C17.2099855,16.0341111 17.2610036,15.6563333 17.2610036,15.2241111 L17.2610036,14.3507778 L19.4292764,12.5452222 L23.1280945,15.4996667 L23.2112764,8.82188889 L26.6283855,8.56633333 L26.3988036,20.0207778 L23.5162764,20.3696667 L20.0337309,17.6918889 C19.8573855,18.2663333 19.6233673,18.8074444 19.3383309,19.3018889 C19.0532945,19.7952222 18.7150218,20.243 18.3279491,20.6274444 C17.9397673,21.0118889 17.5027855,21.3352222 17.0192218,21.5785556 C16.53344,21.8241111 16.0010764,21.9907778 15.4243491,22.0618889 M18.4521673,38.1052222 C17.3364218,38.3152222 16.2761309,38.2952222 15.3090036,38.073 C14.3330036,37.8496667 13.4523855,37.4207778 12.7070764,36.8152222 C11.9562218,36.2041111 11.3440036,35.413 10.9125673,34.473 C10.4789127,33.5263333 10.2293673,32.4296667 10.2094036,31.2163333 L10.0885127,24.0318889 L26.3610945,21.9407778 L26.2246764,28.7241111 C26.2024945,29.8707778 25.9773491,30.9774444 25.5869491,32.003 C25.1976582,33.0274444 24.6420036,33.9763333 23.9543673,34.8085556 C23.2656218,35.643 22.4426764,36.3618889 21.5188036,36.9241111 C20.5904945,37.4896667 19.5568218,37.8985556 18.4521673,38.1052222 M22.9073855,26.3296667 L13.8804945,27.6296667 L13.9048945,30.6418889 C13.91044,31.3241111 14.0280036,31.9341111 14.2453855,32.4574444 C14.4605491,32.9785556 14.7744218,33.413 15.1748036,33.7474444 C15.5718582,34.0796667 16.0532036,34.313 16.6077491,34.433 C17.1578582,34.5518889 17.7800582,34.5585556 18.46104,34.4407778 C19.1353673,34.3241111 19.7464764,34.1041111 20.2843855,33.8007778 C20.8200764,33.4974444 21.2825673,33.1096667 21.6629855,32.6552222 C22.0422945,32.2007778 22.34064,31.6785556 22.5458218,31.1063333 C22.7510036,30.533 22.8630218,29.9074444 22.8707855,29.2463333 L22.9073855,26.3296667" id="Fill-16" fill="#221F20"></path>
                            <path d="M13.2752636,8.96322222 C12.6353182,9.30655556 12.0829909,9.73544444 11.6138455,10.2321111 C11.1435909,10.7287778 10.7598455,11.2921111 10.4570636,11.9032222 C10.1542818,12.5143333 9.93468182,13.1721111 9.79382727,13.8576667 C9.65297273,14.5421111 9.59086364,15.2543333 9.60306364,15.9743333 C9.61859091,16.8865556 9.76055455,17.7554444 10.0234091,18.5387778 C10.2840455,19.3165556 10.6655727,20.0087778 11.1613364,20.571 C11.6537727,21.1298889 12.2604455,21.561 12.9758091,21.8221111 C13.6856273,22.0821111 14.5030273,22.1754444 15.4235727,22.0621111 C16.0014091,21.9898889 16.5337727,21.8243333 17.0184455,21.5787778 C17.5020091,21.3354444 17.9401,21.0121111 18.3271727,20.6276667 C18.7142455,20.2432222 19.0525182,19.7954444 19.3386636,19.301 C19.6237,18.8076667 19.8566091,18.2654444 20.0340636,17.6921111 L23.5155,20.3698889 L26.3991364,20.021 L26.6276091,8.56655556 L23.2116091,8.82211111 L23.1284273,15.4987778 L19.4296091,12.5454444 L17.2602273,14.351 L17.2613364,15.2232222 C17.2613364,15.6565556 17.2103182,16.0343333 17.1171545,16.3576667 C17.0239909,16.6821111 16.8886818,16.9532222 16.7212091,17.1743333 C16.5548455,17.3954444 16.3552091,17.5654444 16.1322818,17.6876667 C15.9093545,17.811 15.6642455,17.8854444 15.4047182,17.9132222 C15.1451909,17.941 14.8967545,17.9198889 14.6705,17.8443333 C14.4431364,17.7698889 14.2379545,17.641 14.0638273,17.4543333 C13.8897,17.2665556 13.7477364,17.021 13.6490273,16.7132222 C13.5492091,16.4043333 13.4915364,16.0321111 13.4882091,15.5932222 C13.4848818,15.1843333 13.5248091,14.8232222 13.6035545,14.5032222 C13.6834091,14.1821111 13.8031909,13.9032222 13.9584636,13.6587778 C14.1126273,13.4143333 14.3033909,13.2054444 14.5241,13.0243333 C14.7459182,12.8432222 14.9976818,12.691 15.2760636,12.561 L13.2752636,8.96322222" id="Fill-18" fill="#FEFEFE"></path>
                            <path d="M26.3606509,21.941 L10.0891782,24.0321111 L10.20896,31.2165556 C10.2300327,32.4298889 10.4784691,33.5265556 10.9132327,34.4732222 C11.34356,35.4132222 11.9557782,36.2043333 12.7077418,36.8154444 C13.4519418,37.421 14.33256,37.8498889 15.30856,38.0732222 C16.2756873,38.2954444 17.3359782,38.3143333 18.4528327,38.1054444 C19.5563782,37.8987778 20.5900509,37.4898889 21.51836,36.9243333 C22.4422327,36.3621111 23.2651782,35.6421111 23.9539236,34.8087778 C24.64156,33.9765556 25.1972145,33.0276667 25.5865055,32.0032222 C25.9769055,30.9765556 26.2020509,29.871 26.2253418,28.7243333 L26.3606509,21.941 M18.4605964,34.441 C17.7796145,34.5587778 17.1585236,34.5521111 16.6073055,34.4321111 C16.0538691,34.3121111 15.5714145,34.0798889 15.17436,33.7465556 C14.7750873,33.4132222 14.4612145,32.9776667 14.2449418,32.4565556 C14.0286691,31.9332222 13.9111055,31.3232222 13.90556,30.6421111 L13.8800509,27.6298889 L22.9069418,26.3287778 L22.8714509,29.2465556 C22.8625782,29.9076667 22.75056,30.5332222 22.5453782,31.1065556 C22.3401964,31.6787778 22.04296,32.201 21.6625418,32.6554444 C21.2832327,33.1098889 20.8196327,33.4976667 20.2839418,33.801 C19.7471418,34.1043333 19.1360327,34.3243333 18.4605964,34.441" id="Fill-20" fill="#FEFEFE"></path>
                        </g>
                        <path d="M172.079336,14.9173333 C172.079336,17.3562222 170.182791,18.6228889 168.047791,18.6228889 C166.371955,18.6228889 164.854718,17.8784444 164.175955,16.2473333 L166.357536,14.9806667 C166.6093,15.7084444 167.083991,16.1517778 168.047791,16.1517778 C169.092555,16.1517778 169.550609,15.5984444 169.550609,14.9173333 C169.550609,14.2362222 169.092555,13.6817778 168.047791,13.6817778 L167.527627,13.6817778 L166.562718,12.2406667 L168.570173,9.69177778 L164.524209,9.69177778 L164.524209,7.31622222 L171.636809,7.31622222 L171.636809,9.37511111 L169.723627,11.814 C171.083373,12.2884444 172.079336,13.3817778 172.079336,14.9173333" id="Fill-23" fill="#FEFEFE"></path>
                        <g id="Group-27" transform="translate(171.909091, 6.666667)">
                            <mask id="mask-2" fill="white">
                                <use xlink:href="#path-1"></use>
                            </mask>
                            <g id="Clip-26"></g>
                            <path d="M8.32494727,6.19177778 C8.32494727,4.29177778 7.12380182,3.08844444 5.38585636,3.08844444 L3.48931091,3.08844444 L3.48931091,9.29511111 L5.38585636,9.29511111 C7.12380182,9.29511111 8.32494727,8.09177778 8.32494727,6.19177778 M10.7594018,6.19177778 C10.7594018,9.32733333 8.43585636,11.734 5.38585636,11.734 L0.959474545,11.734 L0.959474545,0.649555556 L5.38585636,0.649555556 C8.43585636,0.649555556 10.7594018,3.05622222 10.7594018,6.19177778" id="Fill-25" fill="#FEFEFE" mask="url(#mask-2)"></path>
                        </g>
                    </g>
                </g>
            </g>
        </g>
    </g>
</svg>